<svg width="238.01905498325178" height="285.00" viewBox="0 0 240 390.5599243224609" class="looka-1j8o68f"><defs id="SvgjsDefs6096"></defs><g id="SvgjsG6097" featurekey="7KWit6-0" transform="matrix(3.0459715189625216,0,0,3.0459715189625216,-32.29932830811087,-8.693300597443544)" fill="#009688"><g xmlns="http://www.w3.org/2000/svg"><path fill="none" d="M75.648,12.302c0-0.988-0.768-1.758-1.645-1.758c-0.878,0-1.648,0.77-1.648,1.758   c0,0.878,0.771,1.646,1.648,1.646C74.881,13.948,75.648,13.181,75.648,12.302z"></path><path fill="none" d="M69.391,14.499L54.009,29.768c-0.438,0.549-0.438,1.428,0,1.867c0.329,0.332,0.66,0.441,0.991,0.441   c0.441,0,0.66-0.11,0.988-0.441l15.268-15.268c0.549-0.549,0.549-1.319,0-1.868C70.816,13.948,69.939,13.948,69.391,14.499z"></path><path fill="none" d="M45.924,27.314c0.373,0.906,0.679,1.413,0.679,1.413c-0.041-0.817,0.071-1.722,0.285-2.668   c0.485-0.008,0.974-0.014,1.464-0.019c0.444-3.09,1.305-7.893,2.622-10.32C50.974,15.721,46.526,22.47,45.924,27.314z"></path><path fill="none" d="M37.494,28.862c0.8,0.301,1.534,0.524,2.17,0.687c0.04-0.003,0.081-0.005,0.121-0.008   C39.143,29.394,38.362,29.179,37.494,28.862z"></path><polygon fill="none" points="53.516,44.547 48.592,44.547 48.592,50.724 42.415,50.724 42.415,55.564 48.592,55.564 48.592,61.741    53.516,61.741 53.516,55.564 59.691,55.564 59.691,50.724 53.516,50.724  "></polygon><path d="M48.946,91.049c-0.085-6.072-1.003-13.957-4.445-16.149c-1.688-1.074-3.531-2.09-5.481-3.165   c-5.335-2.938-10.853-5.98-14.43-10.858c-0.796-1.087-1.304-1.254-1.397-1.224c-0.081,0.02-0.36,0.33-0.49,1.15   c-0.507,3.186,1.603,9.387,7.877,13.26c0.44,0.273,0.619,0.77,0.42,1.248c-0.198,0.48-0.717,0.634-1.219,0.516   c-0.368-0.087-9.068-2.51-13.79-15.936c-2.306-6.555-4.092-8.32-4.448-8.32h-0.001c-0.392,0-1.656,3.178-0.385,12.411   c2.102,15.277,19.866,33.077,37.692,31.781c0.048-0.815,0.084-1.777,0.098-2.827C48.939,92.35,48.938,91.719,48.946,91.049z"></path><path d="M88.44,52.43c-0.336,0-2.124,1.327-4.433,7.893C79.287,73.748,70.587,75.953,70.22,76.043   c-0.505,0.115-1.022-0.145-1.22-0.623c-0.199-0.479-0.02-1.031,0.42-1.303c6.275-3.873,8.385-10.102,7.878-13.289   c-0.131-0.818-0.408-1.143-0.489-1.162c-0.098-0.033-0.602,0.131-1.396,1.217c-3.578,4.878-9.096,7.917-14.432,10.855   c-1.951,1.074-3.793,2.088-5.482,3.164c-3.437,2.188-4.356,10.041-4.443,16.109c0.008,0.693,0.006,1.348-0.002,1.951   c0.015,1.039,0.051,1.991,0.098,2.8c17.83,1.308,35.591-16.071,37.693-31.351C90.115,55.18,88.85,52.611,88.44,52.43z"></path><path d="M22.486,28.458c-4.632,1.053-7.567,2.379-8.024,3.838h-0.106c0,0,0,0,0,0.218c0,0,0,0.11,0,0.22c0,0,0,0,0,0.11   c0,0.11,0,0.219,0,0.33c0,0.504,0.013,1.004,0.034,1.503C16.094,32.613,18.851,29.914,22.486,28.458z"></path><path d="M85.647,33.063c0-0.109,0-0.109,0-0.219c0-0.11,0-0.11,0-0.11c0-0.109,0-0.109,0-0.22c0-0.109,0-0.218,0-0.218   c-0.659-1.761-4.723-3.297-10.876-4.394l9.665-15.6c1.321-2.087,0.772-4.723-1.098-6.151l-1.315-0.99   c-1.871-1.427-4.395-1.317-6.154,0.329L54.338,26.033c-0.376,0-0.753,0-1.131,0c-1.191,1.036-2.627,2.031-4.347,2.963   c0,0,0.022-0.225,0.068-0.62c15.34-9.115,4.052-23.901,4.052-23.901c-10.507,8.63-9.539,17.423-8.197,21.63   c-0.272,0.007-0.546,0.015-0.817,0.022c-0.027,0.629-0.076,1.278-0.147,1.948c0,0-0.197-0.164-0.536-0.457   C45.235,6.71,23.312,7.607,23.312,7.607c0.949,10.751,5.653,16.318,10.055,19.193c-1.837,0.181-3.579,0.391-5.207,0.627   c2.411,0.069,5.059,0.77,7.916,2.409c1.152-0.109,2.351-0.205,3.588-0.287c-0.636-0.163-1.371-0.386-2.17-0.687   c0.869,0.316,1.649,0.532,2.291,0.679c-0.04,0.002-0.081,0.005-0.121,0.008c1.479,0.379,2.428,0.441,2.428,0.441   c-0.261-0.16-0.519-0.342-0.776-0.541c-0.088,0.005-0.176,0.01-0.263,0.015c-4.497-3.318-8.378-12.72-8.378-12.72   c1.522,2.944,5.887,7.131,8.506,9.494c-0.735,0.033-1.103,0.05-1.994,0.107c0.861,1.121,1.625,2.178,2.778,3.07   c2.761-0.15,5.048-0.197,8.091-0.197c0.219,0,0.659,0,0.988,0l-7.137,6.812c0,0,13.401,1.426,26.034-0.331l2.746-4.613   c4.285,0.879,6.699,1.977,6.699,3.294c0,2.748-13.182,5.054-29.33,5.054c-5.986,0-11.017,0.77-15.664,0.238   c-4.137,2.134-11.395,3.32-19.99-0.238c2.577,17.159,17.697,29.551,35.543,29.551C69.719,68.986,85.647,52.838,85.647,33.063z    M46.888,26.059c-0.214,0.946-0.326,1.851-0.285,2.668c0,0-0.306-0.506-0.679-1.413c0.602-4.845,5.05-11.594,5.05-11.594   c-1.317,2.427-2.178,7.229-2.622,10.32C47.862,26.045,47.374,26.051,46.888,26.059z M71.256,16.367L55.988,31.635   c-0.328,0.332-0.547,0.441-0.988,0.441c-0.331,0-0.662-0.11-0.991-0.441c-0.438-0.439-0.438-1.318,0-1.867l15.382-15.269   c0.549-0.551,1.426-0.551,1.865,0C71.805,15.048,71.805,15.818,71.256,16.367z M72.355,12.302c0-0.988,0.771-1.758,1.648-1.758   c0.877,0,1.645,0.77,1.645,1.758c0,0.878-0.768,1.646-1.645,1.646C73.126,13.948,72.355,13.181,72.355,12.302z M59.691,55.564   h-6.176v6.177h-4.924v-6.177h-6.177v-4.841h6.177v-6.176h4.924v6.176h6.176V55.564z"></path><path d="M38.733,34.567c-4.448,2.182-14.245,0.566-14.245,0.566c4.356,0.347,13.626-2.626,13.626-2.626   c-15.284-11.688-25.03,5.359-25.03,5.359C30.191,46.363,38.733,34.567,38.733,34.567z"></path></g></g></svg>