<svg width="264.0777570508419" height="387.3362670898437" viewBox="0 0 240 352.0201971560411" class="looka-1j8o68f"><defs id="SvgjsDefs4815"></defs><g id="SvgjsG4816" featurekey="7KWit6-0" transform="matrix(3.0459715189625216,0,0,3.0459715189625216,-32.29932830811087,-8.693300597443544)" fill="#ffffff"><g xmlns="http://www.w3.org/2000/svg"><path fill="none" d="M75.648,12.302c0-0.988-0.768-1.758-1.645-1.758c-0.878,0-1.648,0.77-1.648,1.758   c0,0.878,0.771,1.646,1.648,1.646C74.881,13.948,75.648,13.181,75.648,12.302z"></path><path fill="none" d="M69.391,14.499L54.009,29.768c-0.438,0.549-0.438,1.428,0,1.867c0.329,0.332,0.66,0.441,0.991,0.441   c0.441,0,0.66-0.11,0.988-0.441l15.268-15.268c0.549-0.549,0.549-1.319,0-1.868C70.816,13.948,69.939,13.948,69.391,14.499z"></path><path fill="none" d="M45.924,27.314c0.373,0.906,0.679,1.413,0.679,1.413c-0.041-0.817,0.071-1.722,0.285-2.668   c0.485-0.008,0.974-0.014,1.464-0.019c0.444-3.09,1.305-7.893,2.622-10.32C50.974,15.721,46.526,22.47,45.924,27.314z"></path><path fill="none" d="M37.494,28.862c0.8,0.301,1.534,0.524,2.17,0.687c0.04-0.003,0.081-0.005,0.121-0.008   C39.143,29.394,38.362,29.179,37.494,28.862z"></path><polygon fill="none" points="53.516,44.547 48.592,44.547 48.592,50.724 42.415,50.724 42.415,55.564 48.592,55.564 48.592,61.741    53.516,61.741 53.516,55.564 59.691,55.564 59.691,50.724 53.516,50.724  "></polygon><path d="M48.946,91.049c-0.085-6.072-1.003-13.957-4.445-16.149c-1.688-1.074-3.531-2.09-5.481-3.165   c-5.335-2.938-10.853-5.98-14.43-10.858c-0.796-1.087-1.304-1.254-1.397-1.224c-0.081,0.02-0.36,0.33-0.49,1.15   c-0.507,3.186,1.603,9.387,7.877,13.26c0.44,0.273,0.619,0.77,0.42,1.248c-0.198,0.48-0.717,0.634-1.219,0.516   c-0.368-0.087-9.068-2.51-13.79-15.936c-2.306-6.555-4.092-8.32-4.448-8.32h-0.001c-0.392,0-1.656,3.178-0.385,12.411   c2.102,15.277,19.866,33.077,37.692,31.781c0.048-0.815,0.084-1.777,0.098-2.827C48.939,92.35,48.938,91.719,48.946,91.049z"></path><path d="M88.44,52.43c-0.336,0-2.124,1.327-4.433,7.893C79.287,73.748,70.587,75.953,70.22,76.043   c-0.505,0.115-1.022-0.145-1.22-0.623c-0.199-0.479-0.02-1.031,0.42-1.303c6.275-3.873,8.385-10.102,7.878-13.289   c-0.131-0.818-0.408-1.143-0.489-1.162c-0.098-0.033-0.602,0.131-1.396,1.217c-3.578,4.878-9.096,7.917-14.432,10.855   c-1.951,1.074-3.793,2.088-5.482,3.164c-3.437,2.188-4.356,10.041-4.443,16.109c0.008,0.693,0.006,1.348-0.002,1.951   c0.015,1.039,0.051,1.991,0.098,2.8c17.83,1.308,35.591-16.071,37.693-31.351C90.115,55.18,88.85,52.611,88.44,52.43z"></path><path d="M22.486,28.458c-4.632,1.053-7.567,2.379-8.024,3.838h-0.106c0,0,0,0,0,0.218c0,0,0,0.11,0,0.22c0,0,0,0,0,0.11   c0,0.11,0,0.219,0,0.33c0,0.504,0.013,1.004,0.034,1.503C16.094,32.613,18.851,29.914,22.486,28.458z"></path><path d="M85.647,33.063c0-0.109,0-0.109,0-0.219c0-0.11,0-0.11,0-0.11c0-0.109,0-0.109,0-0.22c0-0.109,0-0.218,0-0.218   c-0.659-1.761-4.723-3.297-10.876-4.394l9.665-15.6c1.321-2.087,0.772-4.723-1.098-6.151l-1.315-0.99   c-1.871-1.427-4.395-1.317-6.154,0.329L54.338,26.033c-0.376,0-0.753,0-1.131,0c-1.191,1.036-2.627,2.031-4.347,2.963   c0,0,0.022-0.225,0.068-0.62c15.34-9.115,4.052-23.901,4.052-23.901c-10.507,8.63-9.539,17.423-8.197,21.63   c-0.272,0.007-0.546,0.015-0.817,0.022c-0.027,0.629-0.076,1.278-0.147,1.948c0,0-0.197-0.164-0.536-0.457   C45.235,6.71,23.312,7.607,23.312,7.607c0.949,10.751,5.653,16.318,10.055,19.193c-1.837,0.181-3.579,0.391-5.207,0.627   c2.411,0.069,5.059,0.77,7.916,2.409c1.152-0.109,2.351-0.205,3.588-0.287c-0.636-0.163-1.371-0.386-2.17-0.687   c0.869,0.316,1.649,0.532,2.291,0.679c-0.04,0.002-0.081,0.005-0.121,0.008c1.479,0.379,2.428,0.441,2.428,0.441   c-0.261-0.16-0.519-0.342-0.776-0.541c-0.088,0.005-0.176,0.01-0.263,0.015c-4.497-3.318-8.378-12.72-8.378-12.72   c1.522,2.944,5.887,7.131,8.506,9.494c-0.735,0.033-1.103,0.05-1.994,0.107c0.861,1.121,1.625,2.178,2.778,3.07   c2.761-0.15,5.048-0.197,8.091-0.197c0.219,0,0.659,0,0.988,0l-7.137,6.812c0,0,13.401,1.426,26.034-0.331l2.746-4.613   c4.285,0.879,6.699,1.977,6.699,3.294c0,2.748-13.182,5.054-29.33,5.054c-5.986,0-11.017,0.77-15.664,0.238   c-4.137,2.134-11.395,3.32-19.99-0.238c2.577,17.159,17.697,29.551,35.543,29.551C69.719,68.986,85.647,52.838,85.647,33.063z    M46.888,26.059c-0.214,0.946-0.326,1.851-0.285,2.668c0,0-0.306-0.506-0.679-1.413c0.602-4.845,5.05-11.594,5.05-11.594   c-1.317,2.427-2.178,7.229-2.622,10.32C47.862,26.045,47.374,26.051,46.888,26.059z M71.256,16.367L55.988,31.635   c-0.328,0.332-0.547,0.441-0.988,0.441c-0.331,0-0.662-0.11-0.991-0.441c-0.438-0.439-0.438-1.318,0-1.867l15.382-15.269   c0.549-0.551,1.426-0.551,1.865,0C71.805,15.048,71.805,15.818,71.256,16.367z M72.355,12.302c0-0.988,0.771-1.758,1.648-1.758   c0.877,0,1.645,0.77,1.645,1.758c0,0.878-0.768,1.646-1.645,1.646C73.126,13.948,72.355,13.181,72.355,12.302z M59.691,55.564   h-6.176v6.177h-4.924v-6.177h-6.177v-4.841h6.177v-6.176h4.924v6.176h6.176V55.564z"></path><path d="M38.733,34.567c-4.448,2.182-14.245,0.566-14.245,0.566c4.356,0.347,13.626-2.626,13.626-2.626   c-15.284-11.688-25.03,5.359-25.03,5.359C30.191,46.363,38.733,34.567,38.733,34.567z"></path></g></g><g id="SvgjsG4817" featurekey="ewgXDI-0" transform="matrix(1.5113050201508744,0,0,1.5113050201508744,28.48907376960839,321.64390539738525)" fill="#ffffff"><path d="M5.08 4.9 c-0.38 0.02 -0.76 0.08 -1.14 0.2 c-0.82 0.28 -1.56 0.84 -2.06 1.56 c-0.44 0.66 -0.62 1.44 -0.68 2.22 c-0.04 0.6 0.02 1.22 0.3 1.76 c0.3 0.58 0.82 1.08 1.26 1.56 c0.4 0.42 0.8 0.84 1.24 1.22 c0.4 0.38 0.86 0.68 1.26 1.08 c0.58 0.58 0.8 1.9 0.38 2.62 c-0.5 0.8 -1.68 0.92 -2.46 0.66 c-0.4 -0.14 -0.76 -0.44 -1.1 -0.68 c-0.2 -0.14 -0.44 -0.2 -0.58 0.04 c-0.08 0.12 -0.12 0.26 -0.16 0.38 c-0.14 0.5 -0.32 0.96 -0.34 1.5 c-0.02 0.62 1.16 0.8 1.6 0.9 c1.96 0.46 4.32 0.1 5.34 -1.84 c0.2 -0.4 0.34 -0.82 0.42 -1.26 c0.02 -0.16 0.04 -0.3 0.04 -0.46 c0.08 -1.28 -0.44 -2.36 -1.22 -3.32 c-0.84 -1.04 -1.9 -1.76 -2.88 -2.66 c-0.6 -0.56 -0.82 -1.44 -0.64 -2.24 c0.18 -0.86 1.16 -1.08 1.9 -0.86 c0.22 0.06 0.4 0.16 0.6 0.28 c0.12 0.06 0.24 0.14 0.4 0.14 c0.28 0.02 0.32 -0.2 0.38 -0.42 c0.14 -0.5 0.38 -0.9 0.48 -1.38 c0.1 -0.54 -0.34 -0.64 -0.78 -0.78 c-0.52 -0.14 -1.02 -0.24 -1.56 -0.22 z M11.22 4.98 c-0.02 0 -0.18 -0.02 -0.34 -0.02 c-0.28 0 -0.42 0.1 -0.46 0.36 c-0.02 0.14 -0.02 0.3 0.02 0.42 c0.16 0.62 3.26 13.44 3.42 14 c0.06 0.24 0.08 0.24 0.32 0.24 l1.62 0 l0.12 0 c0.26 0 0.28 -0.36 0.34 -0.7 c0.4 -2.06 0.9 -4.1 1.38 -6.08 c0.02 -0.12 0.06 -0.24 0.1 -0.34 c0.02 -0.04 0.06 -0.06 0.08 -0.06 c0.04 0 0.08 0.02 0.1 0.06 c0.1 0.24 1.3 5.92 1.54 6.9 c0.04 0.12 0.1 0.22 0.26 0.22 l1.6 0 c0.3 0 0.5 -0.16 0.56 -0.46 c0.26 -1.32 0.6 -2.8 0.92 -4.1 c0.4 -1.6 0.82 -3.18 1.24 -4.78 c0.32 -1.28 0.66 -2.68 1.06 -3.94 c0.14 -0.42 0.66 -1.68 -0.22 -1.68 c-0.44 0 -0.82 -0.04 -1.26 -0.02 c-0.14 0 -0.28 0 -0.42 0.02 c-0.22 0 -0.38 0.12 -0.46 0.32 c-0.06 0.2 -0.16 0.42 -0.22 0.62 c-0.3 1.28 -0.58 2.74 -0.94 4 c-0.26 0.94 -0.54 1.86 -0.76 2.8 c0 0.02 -0.08 0.32 -0.16 0.32 c-0.14 0 -0.18 -0.22 -0.22 -0.42 c-0.02 -0.08 -1.02 -5.82 -1.16 -6.94 c-0.04 -0.44 -0.18 -0.7 -0.64 -0.72 l-0.24 0 c-0.52 0.04 -0.8 -0.02 -1.32 0.02 c-0.42 0.02 -0.48 0.06 -0.58 0.44 c-0.02 0.08 -0.02 0.18 -0.04 0.28 c-0.16 0.88 -1.2 6.56 -1.34 7.24 c0 0.04 -0.02 0.12 -0.08 0.12 c-0.08 0 -0.1 -0.1 -0.12 -0.14 c-0.02 -0.08 -1.76 -7.42 -1.82 -7.6 c-0.08 -0.24 -0.26 -0.38 -0.54 -0.38 c-0.44 0.02 -0.78 0 -1.34 0 z M27.400000000000002 15.9 l-0.02 0 c0 0.5 -0.02 1.02 0 1.54 c0.02 0.64 0.06 1.28 0.1 1.92 c0 0.22 0.06 0.28 0.26 0.32 c0.42 0.1 0.82 0.12 1.24 0.12 c1.08 -0.04 2.16 0.04 3.24 0 c0.44 -0.02 0.64 0.02 1.08 -0.06 c0.4 -0.08 0.54 -0.3 0.54 -0.9 c-0.04 -0.38 -0.02 -0.54 -0.02 -1 c0 -0.66 -0.46 -0.88 -0.86 -0.86 c-0.28 0.02 -1.62 -0.02 -2.16 -0.02 c-0.9 0.02 -0.76 0.14 -0.76 -0.8 c0 -0.76 0.02 -1.74 0.02 -2.52 c0 -0.42 0.04 -0.56 0.44 -0.56 l2.5 0 c0.4 0.06 0.68 -0.22 0.68 -0.64 s0.04 -0.44 0.04 -0.86 l-0.06 -0.6 c-0.04 -0.34 -0.16 -0.46 -0.5 -0.46 c-0.22 0 -0.44 0.02 -0.66 0.04 c-0.86 0.06 -1.26 -0.06 -2.1 0 c-0.28 0 -0.32 -0.04 -0.34 -0.3 c-0.08 -0.78 0 -1.64 0.08 -2.42 c0.02 -0.32 0.1 -0.38 0.4 -0.4 l2.82 -0.02 c0.38 -0.04 0.5 -0.02 0.48 -0.4 c-0.04 -0.58 0.02 -1.18 -0.04 -1.76 c-0.04 -0.32 -0.14 -0.38 -0.5 -0.38 c-0.6 0.02 -0.74 0.02 -1.34 0.06 c-0.6 0.02 -3 0.02 -3.58 0.02 c-0.84 0 -0.9 -0.06 -0.92 0.96 c-0.04 0.8 -0.02 1.62 -0.02 2.44 c0 1.4 -0.08 6.42 -0.04 7.54 z M35.86000000000001 15.9 l-0.02 0 c0 0.5 -0.02 1.02 0 1.54 c0.02 0.64 0.06 1.28 0.1 1.92 c0 0.22 0.06 0.28 0.26 0.32 c0.42 0.1 0.82 0.12 1.24 0.12 c1.08 -0.04 2.16 0.04 3.24 0 c0.44 -0.02 0.64 0.02 1.08 -0.06 c0.4 -0.08 0.54 -0.3 0.54 -0.9 c-0.04 -0.38 -0.02 -0.54 -0.02 -1 c0 -0.66 -0.46 -0.88 -0.86 -0.86 c-0.28 0.02 -1.62 -0.02 -2.16 -0.02 c-0.9 0.02 -0.76 0.14 -0.76 -0.8 c0 -0.76 0.02 -1.74 0.02 -2.52 c0 -0.42 0.04 -0.56 0.44 -0.56 l2.5 0 c0.4 0.06 0.68 -0.22 0.68 -0.64 s0.04 -0.44 0.04 -0.86 l-0.06 -0.6 c-0.04 -0.34 -0.16 -0.46 -0.5 -0.46 c-0.22 0 -0.44 0.02 -0.66 0.04 c-0.86 0.06 -1.26 -0.06 -2.1 0 c-0.28 0 -0.32 -0.04 -0.34 -0.3 c-0.08 -0.78 0 -1.64 0.08 -2.42 c0.02 -0.32 0.1 -0.38 0.4 -0.4 l2.82 -0.02 c0.38 -0.04 0.5 -0.02 0.48 -0.4 c-0.04 -0.58 0.02 -1.18 -0.04 -1.76 c-0.04 -0.32 -0.14 -0.38 -0.5 -0.38 c-0.6 0.02 -0.74 0.02 -1.34 0.06 c-0.6 0.02 -3 0.02 -3.58 0.02 c-0.84 0 -0.9 -0.06 -0.92 0.96 c-0.04 0.8 -0.02 1.62 -0.02 2.44 c0 1.4 -0.08 6.42 -0.04 7.54 z M46.84 17.82 c0.02 0.62 0.02 1.24 0.04 1.86 c0 0.28 0.02 0.32 0.3 0.32 l1.8 0 c0.38 0 0.3 -0.64 0.28 -0.98 l0.06 -11.2 c0 -0.3 0.1 -0.4 0.5 -0.4 l1.76 0 c0.42 0 0.32 -0.72 0.32 -1.22 c0 -0.44 0.16 -1.2 -0.32 -1.2 c-0.34 0 -3.6 0 -4.94 0.02 c-0.66 0 -1.2 -0.02 -1.86 -0.02 c-0.5 0 -0.48 0.4 -0.48 1.28 c0 0.56 -0.02 1.12 0.46 1.12 c0.28 0 1.42 0 1.74 0.02 c0.2 0 0.34 0.06 0.38 0.28 c0 0.06 0.02 0.12 0.02 0.18 c0 1.44 -0.1 8.14 -0.06 9.94 z M53.940000000000005 6.539999999999999 c0 0.96 -0.04 11.28 0 12.2 c0.02 0.22 0.02 0.44 0.02 0.66 c0 0.16 0.1 0.26 0.24 0.32 c0.12 0.04 0.28 0.08 0.4 0.08 c0.58 -0.06 1.2 0 1.8 -0.02 c1.04 0.08 1.98 -0.16 2.88 -0.64 c0.84 -0.48 1.3 -1.34 1.62 -2.24 c0.26 -0.76 0.22 -1.66 0.08 -2.44 c-0.12 -0.7 -0.44 -1.38 -0.86 -1.94 c-0.06 -0.08 -0.92 -0.62 -0.88 -0.66 c0.52 -0.74 1.26 -1.36 1.36 -2.28 c0.08 -0.8 -0.1 -1.62 -0.38 -2.36 c-0.18 -0.48 -0.42 -0.94 -0.8 -1.3 c-0.64 -0.6 -1.6 -0.86 -2.44 -0.94 c-0.86 -0.08 -1.66 -0.02 -2.52 -0.06 c-0.3 0 -0.44 0.12 -0.44 0.44 c0 0.42 -0.08 0.76 -0.08 1.18 z M56.4 10.18 c-0.02 -0.22 0 -1.98 -0.04 -2.64 c-0.02 -0.24 0.12 -0.36 0.38 -0.3 c0.2 0.04 0.36 0.06 0.52 0.18 c0.5 0.38 0.88 0.84 0.9 1.48 c0 0.32 0 0.64 -0.12 0.94 c-0.14 0.36 -0.34 0.64 -0.7 0.82 c-0.24 0.12 -0.46 0.26 -0.7 0.36 c-0.12 0.04 -0.24 -0.02 -0.26 -0.14 c0 -0.24 0.02 -0.7 0.02 -0.7 z M58.400000000000006 15.48 c0 0.1 -0.02 0.28 -0.02 0.46 c-0.02 0.6 -0.8 1.36 -1.7 1.38 c-0.06 0 -0.16 -0.06 -0.18 -0.12 c-0.04 -0.12 -0.08 -0.26 -0.08 -0.4 c-0.02 -0.62 0 -1.22 0 -1.88 c0.06 -0.42 0.02 -0.86 0.02 -1.3 c0.02 -0.34 0.1 -0.4 0.42 -0.46 c0.48 -0.06 0.92 0.14 1.14 0.52 c0.26 0.46 0.36 0.96 0.4 1.48 l0 0.32 z M64.94 19.84 c0.06 0.02 0.24 0.02 0.42 0.02 c0.4 0 0.52 -1.44 0.56 -1.74 c0.02 -0.24 0.08 -0.26 0.28 -0.3 c1 -0.12 1.5 -0.04 2.5 -0.02 c0.22 0 0.34 0.1 0.4 0.28 l0.14 0.46 c0.12 0.34 0.22 0.76 0.34 1.1 c0.08 0.24 0.1 0.22 0.34 0.22 c0.32 0 1.48 0 1.82 -0.02 c0.46 0 0.14 -0.94 0.08 -1.1 c-0.18 -0.56 -0.22 -1.14 -0.4 -1.7 c-0.08 -0.24 -2.36 -11.06 -2.46 -11.66 c-0.14 -0.36 -0.02 -0.38 -0.34 -0.38 c-0.68 0 -1.4 0.04 -2.1 0 c-0.28 0 -0.26 0.08 -0.3 0.38 c-0.04 0.28 -0.76 3.46 -1.04 4.78 c-0.36 1.66 -0.68 3.26 -1.08 4.9 c-0.14 0.58 -1.1 4.76 -0.98 4.78 c0.06 0.04 0.16 0.02 0.24 0.02 c0.5 0 0.96 0 1.58 -0.02 z M67.56 15.3 l-0.42 0 c-0.56 0 -0.58 0 -0.44 -0.58 c0.1 -0.44 0.64 -2.82 0.76 -3.4 c0.02 -0.04 0.06 -0.08 0.08 -0.08 c0.04 0 0.08 0.04 0.1 0.06 c0.08 0.24 0.16 0.84 0.24 1.08 c0.18 0.76 0.3 1.4 0.48 2.22 c0.18 0.72 0.1 0.72 -0.26 0.72 c-0.18 0 -0.36 -0.02 -0.54 -0.02 z M73.98 6.960000000000001 c-0.02 1.24 0.1 10.3 0.08 10.96 c0 0.62 0 1.24 0.02 1.86 c0 0.1 0.06 0.2 0.16 0.2 c1.4 0.06 2.78 -0.06 4.18 -0.04 c0.46 0.02 0.92 0 1.36 0 c0.44 -0.02 0.48 -0.2 0.46 -0.56 c-0.02 -0.56 -0.02 -1.06 -0.02 -1.6 c-0.02 -0.28 -0.18 -0.38 -0.42 -0.38 c-0.82 0.02 -1.64 -0.02 -2.46 0.02 c-0.14 0.02 -0.28 0.02 -0.42 0.02 c-0.24 -0.02 -0.3 -0.08 -0.32 -0.34 l0 -0.3 c-0.06 -1.66 0.06 -3.38 0.06 -5.04 c-0.02 -1.4 0 -2.66 -0.02 -3.9 c0 -0.54 0 -1.08 -0.02 -1.6 c-0.02 -0.32 0 -0.66 -0.08 -0.98 c-0.04 -0.12 -0.1 -0.28 -0.24 -0.28 l-1.88 0 c-0.32 0 -0.42 0.22 -0.44 0.54 l0 1.42 z M84.08000000000001 19.84 c0.06 0.02 0.24 0.02 0.42 0.02 c0.4 0 0.52 -1.44 0.56 -1.74 c0.02 -0.24 0.08 -0.26 0.28 -0.3 c1 -0.12 1.5 -0.04 2.5 -0.02 c0.22 0 0.34 0.1 0.4 0.28 l0.14 0.46 c0.12 0.34 0.22 0.76 0.34 1.1 c0.08 0.24 0.1 0.22 0.34 0.22 c0.32 0 1.48 0 1.82 -0.02 c0.46 0 0.14 -0.94 0.08 -1.1 c-0.18 -0.56 -0.22 -1.14 -0.4 -1.7 c-0.08 -0.24 -2.36 -11.06 -2.46 -11.66 c-0.14 -0.36 -0.02 -0.38 -0.34 -0.38 c-0.68 0 -1.4 0.04 -2.1 0 c-0.28 0 -0.26 0.08 -0.3 0.38 c-0.04 0.28 -0.76 3.46 -1.04 4.78 c-0.36 1.66 -0.68 3.26 -1.08 4.9 c-0.14 0.58 -1.1 4.76 -0.98 4.78 c0.06 0.04 0.16 0.02 0.24 0.02 c0.5 0 0.96 0 1.58 -0.02 z M86.7 15.3 l-0.42 0 c-0.56 0 -0.58 0 -0.44 -0.58 c0.1 -0.44 0.64 -2.82 0.76 -3.4 c0.02 -0.04 0.06 -0.08 0.08 -0.08 c0.04 0 0.08 0.04 0.1 0.06 c0.08 0.24 0.16 0.84 0.24 1.08 c0.18 0.76 0.3 1.4 0.48 2.22 c0.18 0.72 0.1 0.72 -0.26 0.72 c-0.18 0 -0.36 -0.02 -0.54 -0.02 z M101.64 5.460000000000001 c0.06 0.28 0.02 13.6 0.02 13.94 c0 0.6 -0.22 0.58 -0.62 0.58 c-0.6 0 -1.44 0.1 -1.62 -0.1 c-0.16 -0.14 -3.12 -7.28 -3.54 -8.18 c-0.04 -0.08 -0.14 -0.28 -0.22 -0.24 c-0.1 0.04 -0.06 0.18 -0.06 0.26 c-0.02 0.7 0.1 6.74 0.1 7.7 c0 0.48 -0.02 0.56 -0.42 0.56 l-1 0 c-0.26 0 -0.58 -0.02 -0.84 0.02 c-0.2 0 -0.3 -0.06 -0.32 -0.26 l0 -1.58 c0.04 -1.68 0 -11.64 0 -12.38 c0 -0.64 0.18 -0.76 0.82 -0.76 c0.44 -0.02 0.88 -0.02 1.32 -0.02 c0.14 0 0.22 0.02 0.3 0.2 c0.54 1.26 2.84 7.04 3.2 7.74 c0.06 0.14 0.28 0.7 0.4 0.76 l0.02 0 c0.08 -0.08 0.06 -0.48 0.06 -0.6 c0 -0.3 -0.16 -7.32 -0.16 -7.46 c0 -0.2 -0.06 -0.38 0.04 -0.52 c0.06 -0.08 0.32 -0.1 0.42 -0.12 c0.56 -0.04 1.22 0.02 1.78 0 c0.28 0 0.26 0.2 0.32 0.46 z M111.60000000000001 7.359999999999999 c0.02 -0.66 0 -1.2 0 -1.84 c0 -0.74 -1.34 -0.66 -1.82 -0.64 c-2.14 0.14 -4.18 1.5 -5.16 3.36 c-0.28 0.54 -0.48 1.1 -0.62 1.68 c-0.34 1.36 -0.36 2.8 -0.2 4.18 c0.14 1.3 0.48 2.6 1.28 3.64 c1.38 1.82 3.92 2.46 6.1 2.12 c0.1 -0.02 0.2 -0.04 0.28 -0.1 c0.06 -0.04 0.12 -0.12 0.12 -0.2 l0.06 -1.14 c0.02 -0.36 0 -0.34 0 -0.7 c0 -0.48 -1 -0.12 -1.62 -0.12 c-0.6 0 -1.24 -0.02 -1.78 -0.3 c-0.96 -0.54 -1.5 -1.62 -1.8 -2.64 c-0.34 -1.1 -0.42 -2.28 -0.22 -3.4 c0.24 -1.46 0.94 -3.14 2.48 -3.64 c0.88 -0.3 1.82 -0.2 2.7 -0.1 c0.12 0.02 0.2 -0.06 0.2 -0.16 z M113.66 15.9 l-0.02 0 c0 0.5 -0.02 1.02 0 1.54 c0.02 0.64 0.06 1.28 0.1 1.92 c0 0.22 0.06 0.28 0.26 0.32 c0.42 0.1 0.82 0.12 1.24 0.12 c1.08 -0.04 2.16 0.04 3.24 0 c0.44 -0.02 0.64 0.02 1.08 -0.06 c0.4 -0.08 0.54 -0.3 0.54 -0.9 c-0.04 -0.38 -0.02 -0.54 -0.02 -1 c0 -0.66 -0.46 -0.88 -0.86 -0.86 c-0.28 0.02 -1.62 -0.02 -2.16 -0.02 c-0.9 0.02 -0.76 0.14 -0.76 -0.8 c0 -0.76 0.02 -1.74 0.02 -2.52 c0 -0.42 0.04 -0.56 0.44 -0.56 l2.5 0 c0.4 0.06 0.68 -0.22 0.68 -0.64 s0.04 -0.44 0.04 -0.86 l-0.06 -0.6 c-0.04 -0.34 -0.16 -0.46 -0.5 -0.46 c-0.22 0 -0.44 0.02 -0.66 0.04 c-0.86 0.06 -1.26 -0.06 -2.1 0 c-0.28 0 -0.32 -0.04 -0.34 -0.3 c-0.08 -0.78 0 -1.64 0.08 -2.42 c0.02 -0.32 0.1 -0.38 0.4 -0.4 l2.82 -0.02 c0.38 -0.04 0.5 -0.02 0.48 -0.4 c-0.04 -0.58 0.02 -1.18 -0.04 -1.76 c-0.04 -0.32 -0.14 -0.38 -0.5 -0.38 c-0.6 0.02 -0.74 0.02 -1.34 0.06 c-0.6 0.02 -3 0.02 -3.58 0.02 c-0.84 0 -0.9 -0.06 -0.92 0.96 c-0.04 0.8 -0.02 1.62 -0.02 2.44 c0 1.4 -0.08 6.42 -0.04 7.54 z"></path></g></svg>